<svg xmlns="http://www.w3.org/2000/svg" width="40" height="38.002" viewBox="0 0 40 38.002" fill="rgb(237,28,36)"
     style="">
    <defs>
        <style/>
    </defs>
    <g transform="translate(-731 -773.998)">
        <path class="a"
              d="M769.772,812l-2.134-2.944V812h-1.359v-5.366h1.292l2.055,2.836v-2.836h1.359V812Zm-9.648,0v-5.366h4V807.9h-2.642v.813h2.392v1.173h-2.392v.851h2.678V812Zm-6.628,0v-1.082l2.5-3.027h-2.414v-1.257H757.9v1.081l-2.5,3.028h2.5V812Zm-6.434,0v-5.366h2.551a2.335,2.335,0,0,1,.8.122,1.41,1.41,0,0,1,.554.361,1.2,1.2,0,0,1,.236.375,1.339,1.339,0,0,1,.085.49V808a1.228,1.228,0,0,1-.216.754,1.439,1.439,0,0,1-.549.442,1.687,1.687,0,0,1,.724.464,1.23,1.23,0,0,1,.267.846v.016a1.312,1.312,0,0,1-.494,1.088,2.2,2.2,0,0,1-1.392.391Zm2.412-1.2a.825.825,0,0,0,.492-.126.424.424,0,0,0,.17-.364V810.3a.426.426,0,0,0-.164-.352.819.819,0,0,0-.513-.131h-1.054v.989Zm-.2-2.03a.86.86,0,0,0,.488-.115.4.4,0,0,0,.167-.352v-.016a.4.4,0,0,0-.158-.34.763.763,0,0,0-.469-.12h-.9v.943ZM740.812,812v-5.366h4V807.9h-2.642v.813h2.392v1.173h-2.392v.851h2.677V812Zm-4.919,0-1-3.058-1,3.058h-1.2l-1.673-5.366h1.459l.877,3.089.96-3.089H735.5l.962,3.089.875-3.089h1.431L737.1,812ZM751,786.019l-1.734,3.209h-6.512l3.256,6.01-3.255,6.013v0L731,779.556h6.511l5.24,9.672L751,774l8.25,15.23,5.244-9.672H771l-11.753,21.7ZM742.751,789.228ZM742.751,789.228Z"/>
    </g>
</svg>